# xmcd
# Track frame offsets:
# 182
# 18525
# 31300
# 42580
# 55772
# 66110
# 79542
# 92442
# 105125
# 118360
#
# Disc length: 1726 seconds
# Revision: 0
# Processed by: cddbd v1.4PL0 Copyright (c) Steve Scherf et al.
# Submitted via: VisiTrax 2.9.5.180 - For more info visit www.synapsa.com
#
DISCID=7606bc0a
DTITLE=Stoney Edwards - Just For Old Times Sake
DYEAR=1991
DGENRE=
TTITLE0=Just For Old Times Sake
TTITLE1=You´re The One I Sing My Love Songs To
TTITLE2=I Miss You
TTITLE3=The Old River
TTITLE4=They All Come Down
TTITLE5=Lately I´ve Been Leanin´Towards The Blues
TTITLE6=After All
TTITLE7=Me And You
TTITLE8=I Cant´t Find A Way To Say Goodbye
TTITLE9=Dixie Sundown
EXTD=
EXTT0=
EXTT1=
EXTT2=
EXTT3=
EXTT4=
EXTT5=
EXTT6=
EXTT7=
EXTT8=
EXTT9=
PLAYORDER=
